<svg xmlns="http://www.w3.org/2000/svg" viewBox="0 0 280 70"><rect width="280" height="70" fill="#F7F2E8"/><g transform="translate(8 8)"><path d="M8 33c3 11 13 19 25 19s22-8 25-19" fill="none" stroke="#1F6A52" stroke-width="4" stroke-linecap="round"/><path d="M13 31c5 7 12 10 20 10s15-3 20-10" fill="none" stroke="#C8A96B" stroke-width="3" stroke-linecap="round"/><path d="M33 4c5 8 5 14 0 20-5-6-5-12 0-20Z" fill="#1F6A52"/><path d="M20 18c-1-6 2-10 9-13 1 6-2 10-9 13Z" fill="#C8A96B"/><path d="M46 18c1-6-2-10-9-13-1 6 2 10 9 13Z" fill="#C8A96B"/></g><text x="82" y="37" font-family="Georgia,serif" font-size="28" font-weight="600" fill="#1F6A52">Jade Wok</text><text x="84" y="54" font-family="Arial,sans-serif" font-size="7" letter-spacing="3" fill="#C8A96B">MODERN CHINESE CUISINE</text></svg>